<?xml version="1.0" standalone="no"?><!DOCTYPE svg PUBLIC "-//W3C//DTD SVG 1.1//EN" "http://www.w3.org/Graphics/SVG/1.1/DTD/svg11.dtd"><svg t="1574341865611" class="icon" viewBox="0 0 1024 1024" version="1.1" xmlns="http://www.w3.org/2000/svg" p-id="6744" xmlns:xlink="http://www.w3.org/1999/xlink" width="200" height="200"><defs><style type="text/css"></style></defs><path d="M213.4 605.285a18.64 18.64 0 0 0 12.668-4.947l230.82-213.006 174.086 139.234c3.936 3.142 8.967 4.581 13.907 3.954a18.668 18.668 0 0 0 12.556-7.143L844.063 280.84c6.268-8.17 4.756-19.889-3.427-26.166-8.164-6.294-19.865-4.744-26.172 3.41L639.45 485.555 467.679 348.177c-7.22-5.748-17.534-5.402-24.33 0.857l-242.616 223.88c-7.562 6.99-8.037 18.795-1.037 26.365 3.662 3.983 8.674 6.006 13.704 6.006z m597.2-130.6h37.326v335.823H810.6V474.685z m-37.324-18.658v373.138c0 10.311 8.348 18.657 18.662 18.657h74.649c10.316 0 18.664-8.346 18.664-18.657V456.027c0-10.302-8.348-18.655-18.664-18.655h-74.65c-10.313 0-18.661 8.353-18.661 18.655zM661.3 810.507h-37.325V661.253h37.326v149.256zM605.313 623.94c-10.316 0-18.662 8.355-18.662 18.657v186.569c0 10.311 8.346 18.658 18.662 18.658h74.65c10.315 0 18.663-8.347 18.663-18.658V642.597c0-10.302-8.348-18.657-18.664-18.657h-74.649zM288.05 810.508h-37.324V661.252h37.324v149.256zM232.061 623.94c-10.314 0-18.662 8.355-18.662 18.657v186.569c0 10.311 8.348 18.658 18.662 18.658h74.651c10.314 0 18.663-8.347 18.663-18.658V642.597c0-10.302-8.349-18.657-18.663-18.657h-74.65z m242.613 186.568H437.35V512h37.324v298.508z m-55.985-335.823c-10.316 0-18.664 8.354-18.664 18.657v335.823c0 10.311 8.348 18.657 18.664 18.657h74.649c10.316 0 18.662-8.346 18.662-18.657V493.342c0-10.303-8.346-18.657-18.662-18.657h-74.65zM959.9 885.137h-821.15v-820.9h-37.327v820.901H64.099v37.313h37.326v37.313h37.326v-37.313h821.15v-37.314z" fill="#333333" p-id="6745"></path></svg>