<?xml version="1.0" standalone="no"?><!DOCTYPE svg PUBLIC "-//W3C//DTD SVG 1.1//EN" "http://www.w3.org/Graphics/SVG/1.1/DTD/svg11.dtd"><svg t="1574341862205" class="icon" viewBox="0 0 1024 1024" version="1.1" xmlns="http://www.w3.org/2000/svg" p-id="6629" xmlns:xlink="http://www.w3.org/1999/xlink" width="200" height="200"><defs><style type="text/css"></style></defs><path d="M560.512 981.333333a107.392 107.392 0 0 1-75.861333-31.317333l-408.576-409.728c-21.461333-21.632-33.28-48.426667-33.28-75.434667V151.893333C42.666667 93.866667 93.525333 44.8 153.6 44.8h311.637333c28.330667 0 55.082667 11.178667 75.264 31.445333l407.466667 409.898667c20.053333 20.053333 31.104 46.890667 31.104 75.52 0 28.373333-11.136 55.125333-31.274667 75.434667l-311.765333 312.917333a105.685333 105.685333 0 0 1-75.52 31.274667zM153.642667 85.333333c-37.546667 0-70.4 31.104-70.4 66.602667v312.96c0 16.042667 7.808 33.109333 21.504 46.890667l408.576 409.728a66.730667 66.730667 0 0 0 94.08 0.042666l311.808-312.917333c12.544-12.586667 19.498667-29.269333 19.498666-46.890667 0-17.834667-6.826667-34.474667-19.328-46.976l-407.466666-409.941333A65.493333 65.493333 0 0 0 465.322667 85.333333H153.642667z" fill="#101317" p-id="6630"></path><path d="M384.213333 534.058667a149.248 149.248 0 0 1-146.730666-116.906667 152.362667 152.362667 0 0 1 29.354666-128.469333A150.058667 150.058667 0 0 1 384.853333 232.192a149.333333 149.333333 0 0 1 146.133334 116.821333 151.978667 151.978667 0 0 1-29.226667 128.426667 149.76 149.76 0 0 1-117.461333 56.618667h-0.085334zM384.853333 272.64c-33.92 0-65.408 15.018667-86.442666 41.301333a112.042667 112.042667 0 0 0-21.418667 94.549334c9.088 40.96 41.258667 73.301333 82.133333 82.346666a111.104 111.104 0 0 0 111.018667-38.528 111.744 111.744 0 0 0 21.333333-94.506666A108.714667 108.714667 0 0 0 384.853333 272.64z" fill="#101317" p-id="6631"></path></svg>